<?xml version="1.0" encoding="utf-8"?>
<!-- Generator: Adobe Illustrator 22.0.0, SVG Export Plug-In . SVG Version: 6.00 Build 0)  -->
<svg version="1.1" id="Capa_1" xmlns="http://www.w3.org/2000/svg" xmlns:xlink="http://www.w3.org/1999/xlink" x="0px" y="0px"
	 viewBox="0 0 512 512" style="enable-background:new 0 0 512 512;" xml:space="preserve">
<style type="text/css">
	#st0{fill:#ce1327 ;}
	#st1{fill:#ffffff;}
</style>
<rect x="0" id="st0" width="512" height="512"/>
<g>
	<g>
		<g>
			<path id="st1" d="M453.2,128.7c-2.1,0.6-4.1,1.2-6.2,1.7c-12.6,3.2-13.8-1-4.6-10.3c4.1-4.2,7.7-8.7,10.9-13.6
				c7-11,0.9-15.7-11-10.6c-4.3,1.8-8.6,3.5-13,5c-12.3,4.1-29.9-2.1-40.9-9.1c-13.9-8.8-29.7-13.2-47.4-13.2
				c-24.8,0-45.9,8.7-63.3,26.2c-17.5,17.5-26.2,38.6-26.2,63.3c0,3.4,0.2,6.8,0.6,10.3c0.6,5.7-8.9,9.8-21.8,8
				c-27.9-3.9-54.4-12.4-79.5-25.3c-24.9-12.8-46.9-29-65.9-48.5c-9.1-9.3-21.4-8.5-24.8,4.1c-2,7.5-3.1,15.4-3.1,23.5
				c0,15.3,3.6,29.6,10.8,42.7c3.6,6.5,7.8,12.4,12.6,17.7c8.1,8.9,6.9,14.1-4.4,10.9c-11.3-3.2-19.6-7.9-19.6-7.6
				c0,0.3,0,0.6,0,0.6c0,21.6,6.8,40.6,20.4,57c8.4,10.1,18.1,17.9,29.2,23.3c11.7,5.8,17.1,9,10.6,9.9c-3.9,0.5-7.9,0.8-11.9,0.8
				c-2.7,0-5.5-0.1-8.5-0.4c-4.7-0.4-5.5,9.3,1.6,20.3c5.6,8.7,12.8,16.3,21.6,22.9c8.9,6.7,18.5,11.5,28.8,14.5
				c12.5,3.6,15,10.1,3.9,16.8c-27.6,16.6-58.2,24.9-91.8,24.9c-3.8,0-7.4-0.1-10.8-0.2c-6-0.3-2,5,9.6,11
				c36,18.9,75.1,28.3,117.1,28.3c31.8,0,61.6-5,89.5-15.1c27.9-10.1,51.7-23.6,71.5-40.5c19.8-16.9,36.8-36.4,51.1-58.4
				c14.3-22,25-45,32-68.9c7-23.9,10.5-47.9,10.5-71.9c0-2.2,0-4.1-0.1-5.8c-0.1-3.2,8.4-11.9,17.9-20.8c4.3-4,8.4-8.2,12.3-12.7
				C469.5,129.6,465.7,125.1,453.2,128.7z"/>
		</g>
	</g>
</g>
</svg>
